<svg width="125" height="24" viewBox="0 0 125 24" fill="none" xmlns="http://www.w3.org/2000/svg">
<path fill-rule="evenodd" clip-rule="evenodd" d="M79.5516 17.4389C73.9822 13.3403 73.1128 13.6675 62.1127 24C72.4452 12.9999 72.7724 12.1339 68.6738 6.56109C74.2433 10.6597 75.1126 10.3325 86.1127 0C75.7802 11.0001 75.453 11.8661 79.5516 17.4389ZM121.255 17.3729C120.64 17.3729 120.168 17.2043 119.837 16.8672C119.506 16.53 119.341 16.0673 119.341 15.4822V8.14108H116.109V6.62395L119.341 6.62395V2.79968L121.077 2.79968V6.62395L124.593 6.62395V8.14108H121.077V15.2211C121.077 15.6607 121.288 15.8822 121.714 15.8822H124.111V17.3762L121.252 17.3762L121.255 17.3729ZM20.5913 4.04578L20.5913 16.2887H22.8554L22.8554 4.04578H20.5913ZM44.1054 16.0374V13.6873L47.4338 12.4247L44.1054 11.1621V8.81197L50.5904 11.2282H50.607V13.6444H50.5904L44.1054 16.0473V16.0407V16.0374ZM41.319 5.48681L37.5046 17.7297H39.7688L43.5831 5.48681L41.319 5.48681ZM6.49074 11.1521V8.80205L-0.000925935 11.215H-0.0141602L-0.0141602 13.6278H-0.000925935L6.49074 16.044L6.49074 13.6906L3.16227 12.4214L6.49074 11.1554V11.1521ZM18.1983 11.0729C18.2347 10.1176 17.8976 9.18221 17.253 8.47487L17.2563 8.47818C16.6085 7.8039 15.7061 7.43699 14.7707 7.47666C13.7692 7.43369 12.7974 7.8039 12.0769 8.50463V7.73117H9.81273V16.292L12.0769 16.292V12.5008C12.0769 10.5308 12.7842 9.5491 14.2022 9.5491C14.6848 9.52927 15.1475 9.73091 15.4615 10.0978C15.7921 10.5077 15.9606 11.0299 15.9342 11.5554V16.2887H18.1983V11.0729ZM33.0293 16.2853L34.9134 16.2853L38.0898 7.70797L35.6703 7.70797L33.8887 12.8544L32.0509 7.70797L30.2859 7.70797L28.4481 12.8378L26.6666 7.70797L24.2471 7.70797L27.4202 16.2853H29.3075L31.1783 11.2447L33.0293 16.2853ZM61.3524 17.6802C60.2683 17.6802 59.3163 17.4488 58.4933 16.9861C57.6736 16.5233 57.0357 15.8755 56.5795 15.0393C56.1267 14.203 55.8986 13.2379 55.8986 12.1372V11.8728C55.8986 10.7589 56.1267 9.78379 56.5795 8.94754C57.0324 8.11129 57.6637 7.46346 58.4702 7.00072C59.2767 6.53797 60.1989 6.30658 61.24 6.30658C62.2812 6.30658 63.1439 6.52144 63.9207 6.95444C64.6974 7.38743 65.3056 8.00553 65.7452 8.81203C66.1848 9.61853 66.4063 10.5639 66.4063 11.648V12.438L57.6339 12.438C57.6769 13.5948 58.0504 14.5005 58.7545 15.1516C59.4585 15.8028 60.3377 16.13 61.3921 16.13C62.3143 16.13 63.0249 15.9185 63.524 15.4921C64.0231 15.0657 64.4032 14.56 64.6677 13.9749L66.1617 14.6988C65.9402 15.1516 65.6361 15.6078 65.2494 16.0606C64.8594 16.5134 64.357 16.8969 63.7323 17.2043C63.1076 17.5117 62.3143 17.667 61.3458 17.667L61.3524 17.6802ZM57.6604 11.02L64.6511 11.02C64.5916 10.0251 64.2512 9.24833 63.6298 8.68973C63.0051 8.13444 62.2118 7.85348 61.2434 7.85348C60.2749 7.85348 59.4552 8.13113 58.8238 8.68973C58.1925 9.24833 57.8058 10.0251 57.6571 11.02H57.6604ZM82.5859 6.62399V21.769L82.5892 21.7723H84.3245V15.6839H84.6319C84.8071 16.0078 85.055 16.3218 85.3789 16.6292C85.7029 16.9366 86.1226 17.1878 86.6449 17.3861C87.1638 17.5844 87.7984 17.6836 88.5454 17.6836C89.4842 17.6836 90.3402 17.4621 91.1071 17.0225C91.8739 16.5829 92.4887 15.945 92.9415 15.1088C93.3944 14.2725 93.6224 13.2842 93.6224 12.1406V11.8563C93.6224 10.6994 93.391 9.70785 92.9283 8.88813C92.4655 8.06841 91.8508 7.43378 91.0806 6.98757C90.3105 6.54135 89.4643 6.31659 88.5421 6.31659C87.4282 6.31659 86.5589 6.52813 85.9375 6.95452C85.3128 7.38091 84.8633 7.86349 84.5856 8.40556H84.2783V6.62399H82.5859ZM90.7964 15.0724C90.1023 15.7864 89.1966 16.14 88.0827 16.14C86.9853 16.14 86.0797 15.783 85.369 15.0724C84.6584 14.3618 84.3014 13.3702 84.3014 12.0943V11.896C84.3014 10.6201 84.6584 9.62853 85.369 8.91789C86.0797 8.20724 86.9688 7.85025 88.0827 7.85025C89.1966 7.85025 90.0989 8.20724 90.7964 8.91789C91.4938 9.62853 91.8409 10.6201 91.8409 11.896V12.0943C91.8409 13.3702 91.4905 14.3618 90.7964 15.0724ZM101.158 17.6802C100.074 17.6802 99.1223 17.4488 98.2993 16.9861C97.4795 16.5233 96.8416 15.8755 96.3855 15.0393C95.9327 14.203 95.7046 13.2379 95.7046 12.1372V11.8728C95.7046 10.7589 95.9327 9.78379 96.3855 8.94754C96.8383 8.11129 97.4696 7.46346 98.2761 7.00072C99.0826 6.53797 100.005 6.30658 101.046 6.30658C102.087 6.30658 102.95 6.52144 103.727 6.95444C104.503 7.38743 105.112 8.00553 105.551 8.81203C105.991 9.61853 106.212 10.5639 106.212 11.648V12.438L97.4399 12.438C97.4829 13.5948 97.8564 14.5005 98.5604 15.1516C99.2644 15.8028 100.144 16.13 101.198 16.13C102.12 16.13 102.831 15.9185 103.33 15.4921C103.829 15.0657 104.209 14.56 104.474 13.9749L105.968 14.6988C105.746 15.1516 105.442 15.6078 105.055 16.0606C104.665 16.5134 104.163 16.8969 103.538 17.2043C102.914 17.5117 102.12 17.667 101.152 17.667L101.158 17.6802ZM97.4663 11.02H104.457C104.398 10.0251 104.057 9.24833 103.436 8.68973C102.811 8.13444 102.018 7.85348 101.049 7.85348C100.081 7.85348 99.2611 8.13113 98.6298 8.68973C97.9985 9.24833 97.6118 10.0251 97.463 11.02H97.4663ZM108.771 6.62404V17.3729H110.506V10.8218C110.506 9.91284 110.744 9.24185 111.22 8.80885C111.696 8.37585 112.324 8.161 113.101 8.161H114.486V6.57776H113.21C112.565 6.57776 112.046 6.68683 111.65 6.90829C111.253 7.12975 110.962 7.4735 110.77 7.94286H110.463V6.62404H108.771Z" fill="url(#paint0_linear_182_384)"/>
<defs>
<linearGradient id="paint0_linear_182_384" x1="120.544" y1="12.6396" x2="5.95406" y2="11.4541" gradientUnits="userSpaceOnUse">
<stop stop-color="#53596D"/>
<stop offset="0.398584" stop-color="#668043"/>
<stop offset="1" stop-color="#53596D"/>
</linearGradient>
</defs>
</svg>
